<?xml version="1.0" standalone="no"?>
<!DOCTYPE svg PUBLIC "-//W3C//DTD SVG 20010904//EN"
 "http://www.w3.org/TR/2001/REC-SVG-20010904/DTD/svg10.dtd">
<svg version="1.0" xmlns="http://www.w3.org/2000/svg"
 width="1280.000000pt" height="774.000000pt" viewBox="0 0 1280.000000 774.000000"
 preserveAspectRatio="xMidYMid meet">
<metadata>
Created by potrace 1.15, written by Peter Selinger 2001-2017
</metadata>
<g transform="translate(0.000000,774.000000) scale(0.100000,-0.100000)"
fill="#000000" stroke="none">
<path d="M4286 7488 c-104 -139 -189 -257 -189 -262 0 -6 49 -94 108 -196
l107 -185 -115 -375 c-64 -206 -190 -620 -282 -920 -91 -300 -169 -553 -173
-563 -6 -15 -17 -11 -87 34 -103 67 -326 178 -435 217 -854 309 -1760 100
-2419 -559 -415 -415 -675 -946 -772 -1579 -33 -210 -33 -610 0 -820 126 -819
537 -1487 1172 -1906 593 -391 1348 -480 2009 -237 613 225 1132 722 1416
1355 185 412 264 817 251 1288 -21 727 -285 1368 -777 1883 -55 58 -100 109
-100 113 0 25 134 454 140 447 8 -9 2408 -2972 2422 -2990 7 -8 3 -22 -10 -40
-11 -15 -30 -56 -42 -90 -32 -89 -26 -223 14 -305 59 -124 176 -215 309 -240
59 -11 67 -15 72 -38 2 -14 23 -135 45 -270 22 -135 42 -257 45 -272 l4 -28
-89 0 -90 0 0 -155 0 -155 330 0 330 0 0 155 0 154 -97 3 -96 3 -99 315 c-54
173 -98 318 -98 321 0 4 14 12 30 19 41 17 131 109 155 158 12 25 29 43 43 47
57 14 695 145 697 143 2 -2 15 -43 30 -92 98 -325 279 -667 492 -931 163 -203
412 -423 629 -557 763 -472 1707 -455 2454 44 156 105 231 168 380 317 245
246 426 513 561 826 374 870 303 1883 -187 2675 -146 236 -394 517 -594 671
-348 270 -721 428 -1140 484 -139 19 -419 19 -567 0 -331 -43 -660 -164 -937
-345 l-109 -71 -37 38 c-20 21 -191 202 -380 403 -189 201 -360 383 -381 405
l-39 40 54 175 54 175 58 6 c33 4 97 7 144 8 95 1 215 28 298 66 91 42 323
287 353 375 17 47 3 94 -36 129 -66 58 -9 59 -812 -19 -645 -62 -753 -70 -959
-70 -184 0 -192 -1 -241 -25 -77 -39 -78 -42 -52 -125 42 -129 91 -165 335
-250 155 -54 277 -78 432 -86 72 -4 132 -9 132 -11 0 -2 -14 -53 -32 -114
l-31 -109 -216 0 c-200 0 -553 -4 -2565 -30 -413 -5 -751 -8 -753 -6 -2 2 57
206 132 454 74 248 135 459 135 467 0 9 -16 50 -35 92 -19 42 -35 80 -35 85 0
5 23 42 50 82 l50 73 338 7 c185 3 397 9 470 13 l132 6 0 253 0 254 -557 0
-558 0 -189 -252z m3450 -1995 c-10 -34 -265 -890 -381 -1278 -64 -214 -186
-624 -271 -910 -86 -286 -166 -553 -179 -594 l-23 -75 -5 40 c-4 21 -9 95 -12
164 -3 69 -8 142 -11 163 l-6 37 60 0 60 0 4 133 c2 72 3 135 1 140 -3 4 -132
7 -289 7 l-284 0 0 -135 0 -135 84 0 85 0 10 -52 c6 -29 24 -125 41 -213 17
-88 33 -167 36 -175 3 -10 -2 -8 -14 5 -11 11 -527 637 -1147 1390 -621 754
-1150 1395 -1177 1426 -26 31 -48 59 -48 63 0 3 548 7 1218 9 669 1 1450 3
1735 5 490 2 518 1 513 -15z m643 -416 l292 -408 -48 -56 c-327 -377 -546
-815 -641 -1278 -50 -243 -57 -317 -57 -622 l0 -293 -50 -10 c-27 -5 -191 -39
-362 -74 -240 -49 -315 -61 -323 -51 -7 8 -2 38 15 96 22 77 81 288 275 979
38 135 110 391 160 570 50 179 122 435 160 570 38 135 114 407 169 605 109
387 110 390 115 384 2 -2 135 -188 295 -412z m2266 -232 c381 -66 710 -236
994 -510 345 -334 560 -760 642 -1275 19 -115 19 -555 0 -670 -80 -500 -277
-905 -604 -1239 -290 -294 -627 -475 -1022 -547 -123 -22 -450 -26 -565 -5
-494 85 -920 348 -1224 756 -129 173 -204 303 -278 485 -40 96 -82 220 -77
224 2 1 191 41 419 89 1094 227 1717 358 1733 365 15 6 -56 116 -449 697 -256
380 -562 832 -680 1006 l-213 317 53 35 c214 142 503 248 771 282 134 17 373
13 500 -10z m-7950 -29 c196 -31 357 -81 530 -165 119 -59 333 -193 341 -216
6 -15 -193 -672 -213 -704 -13 -21 -593 -638 -811 -863 l-84 -88 -49 16 c-140
46 -301 -26 -360 -160 -32 -71 -31 -175 1 -241 53 -110 147 -169 270 -169 105
0 151 26 265 150 50 54 299 321 555 594 l465 496 109 368 110 369 24 -29 c292
-350 464 -745 523 -1204 16 -122 16 -438 0 -560 -98 -753 -524 -1378 -1146
-1680 -254 -124 -442 -169 -730 -177 -205 -6 -335 7 -490 48 -679 177 -1210
720 -1420 1449 -65 227 -80 343 -80 640 0 234 3 280 24 395 164 915 816 1600
1646 1729 120 19 405 19 520 2z m6779 -1270 c268 -376 487 -688 486 -693 -2
-7 -71 -23 -525 -117 -93 -20 -354 -74 -579 -121 -226 -47 -415 -85 -422 -85
-35 0 -25 379 16 611 54 299 173 599 334 842 67 101 182 247 194 247 4 0 227
-308 496 -684z"/>
</g>
</svg>
